<mxfile host="app.diagrams.net" modified="2023-10-22T13:55:39.685Z" agent="Mozilla/5.0 (X11; Ubuntu; Linux x86_64; rv:109.0) Gecko/20100101 Firefox/118.0" etag="SW-FfSU_SBGCU5t3n5_W" version="22.0.6" type="device">
  <diagram name="第 1 页" id="RuPAdEbWMCYGYV-oIJMy">
    <mxGraphModel dx="994" dy="545" grid="1" gridSize="10" guides="1" tooltips="1" connect="1" arrows="1" fold="1" page="1" pageScale="1" pageWidth="827" pageHeight="1169" math="0" shadow="0">
      <root>
        <mxCell id="0" />
        <mxCell id="1" parent="0" />
        <mxCell id="GsuCEb-JJvYCm_2uKdxv-1" value="&lt;font style=&quot;font-size: 16px;&quot;&gt;S0&lt;/font&gt;" style="ellipse;whiteSpace=wrap;html=1;fontSize=16;" vertex="1" parent="1">
          <mxGeometry x="240" y="240" width="75" height="50" as="geometry" />
        </mxCell>
        <mxCell id="GsuCEb-JJvYCm_2uKdxv-2" value="&lt;div style=&quot;font-size: 16px;&quot;&gt;&lt;font style=&quot;font-size: 16px;&quot;&gt;S1&lt;/font&gt;&lt;/div&gt;" style="ellipse;whiteSpace=wrap;html=1;fontSize=16;" vertex="1" parent="1">
          <mxGeometry x="390" y="300" width="75" height="50" as="geometry" />
        </mxCell>
        <mxCell id="GsuCEb-JJvYCm_2uKdxv-3" value="&lt;div style=&quot;font-size: 16px;&quot;&gt;&lt;font style=&quot;font-size: 16px;&quot;&gt;S2&lt;/font&gt;&lt;/div&gt;" style="ellipse;whiteSpace=wrap;html=1;fontSize=16;" vertex="1" parent="1">
          <mxGeometry x="500" y="200" width="75" height="50" as="geometry" />
        </mxCell>
        <mxCell id="GsuCEb-JJvYCm_2uKdxv-4" value="" style="endArrow=classic;html=1;rounded=0;exitX=1;exitY=1;exitDx=0;exitDy=0;entryX=0;entryY=0.5;entryDx=0;entryDy=0;fontSize=16;" edge="1" parent="1" source="GsuCEb-JJvYCm_2uKdxv-1" target="GsuCEb-JJvYCm_2uKdxv-2">
          <mxGeometry relative="1" as="geometry">
            <mxPoint x="360" y="290" as="sourcePoint" />
            <mxPoint x="460" y="290" as="targetPoint" />
          </mxGeometry>
        </mxCell>
        <mxCell id="GsuCEb-JJvYCm_2uKdxv-6" value="1" style="edgeLabel;html=1;align=center;verticalAlign=middle;resizable=0;points=[];" vertex="1" connectable="0" parent="GsuCEb-JJvYCm_2uKdxv-4">
          <mxGeometry x="0.1339" y="5" relative="1" as="geometry">
            <mxPoint x="-11" as="offset" />
          </mxGeometry>
        </mxCell>
        <mxCell id="GsuCEb-JJvYCm_2uKdxv-7" value="&lt;div&gt;1&lt;/div&gt;" style="edgeLabel;html=1;align=center;verticalAlign=middle;resizable=0;points=[];fontSize=16;" vertex="1" connectable="0" parent="GsuCEb-JJvYCm_2uKdxv-4">
          <mxGeometry x="-0.0533" y="1" relative="1" as="geometry">
            <mxPoint as="offset" />
          </mxGeometry>
        </mxCell>
        <mxCell id="GsuCEb-JJvYCm_2uKdxv-11" value="" style="curved=1;endArrow=classic;html=1;rounded=0;exitX=0;exitY=1;exitDx=0;exitDy=0;entryX=1;entryY=1;entryDx=0;entryDy=0;" edge="1" parent="1" source="GsuCEb-JJvYCm_2uKdxv-2" target="GsuCEb-JJvYCm_2uKdxv-2">
          <mxGeometry width="50" height="50" relative="1" as="geometry">
            <mxPoint x="390" y="310" as="sourcePoint" />
            <mxPoint x="440" y="260" as="targetPoint" />
            <Array as="points">
              <mxPoint x="401" y="380" />
              <mxPoint x="420" y="400" />
            </Array>
          </mxGeometry>
        </mxCell>
        <mxCell id="GsuCEb-JJvYCm_2uKdxv-12" value="&lt;font style=&quot;font-size: 16px;&quot;&gt;1&lt;/font&gt;" style="edgeLabel;html=1;align=center;verticalAlign=middle;resizable=0;points=[];fontSize=12;" vertex="1" connectable="0" parent="GsuCEb-JJvYCm_2uKdxv-11">
          <mxGeometry x="0.2383" y="2" relative="1" as="geometry">
            <mxPoint x="-13" y="5" as="offset" />
          </mxGeometry>
        </mxCell>
        <mxCell id="GsuCEb-JJvYCm_2uKdxv-14" value="" style="endArrow=classic;html=1;rounded=0;exitX=1;exitY=0;exitDx=0;exitDy=0;entryX=0;entryY=1;entryDx=0;entryDy=0;fontSize=16;" edge="1" parent="1" source="GsuCEb-JJvYCm_2uKdxv-2" target="GsuCEb-JJvYCm_2uKdxv-3">
          <mxGeometry relative="1" as="geometry">
            <mxPoint x="314" y="293" as="sourcePoint" />
            <mxPoint x="400" y="335" as="targetPoint" />
          </mxGeometry>
        </mxCell>
        <mxCell id="GsuCEb-JJvYCm_2uKdxv-16" value="0" style="edgeLabel;html=1;align=center;verticalAlign=middle;resizable=0;points=[];fontSize=16;" vertex="1" connectable="0" parent="GsuCEb-JJvYCm_2uKdxv-14">
          <mxGeometry x="-0.0533" y="1" relative="1" as="geometry">
            <mxPoint as="offset" />
          </mxGeometry>
        </mxCell>
        <mxCell id="GsuCEb-JJvYCm_2uKdxv-19" value="&lt;font color=&quot;#ff0000&quot; style=&quot;font-size: 16px;&quot;&gt;cover&lt;/font&gt;" style="text;html=1;align=center;verticalAlign=middle;resizable=0;points=[];autosize=1;strokeColor=none;fillColor=none;" vertex="1" parent="1">
          <mxGeometry x="515" y="140" width="60" height="30" as="geometry" />
        </mxCell>
        <mxCell id="GsuCEb-JJvYCm_2uKdxv-22" value="&lt;font style=&quot;font-size: 16px;&quot;&gt;non-cover&lt;/font&gt;" style="text;html=1;align=center;verticalAlign=middle;resizable=0;points=[];autosize=1;strokeColor=none;fillColor=none;fontColor=#3333FF;" vertex="1" parent="1">
          <mxGeometry x="360" y="120" width="90" height="30" as="geometry" />
        </mxCell>
        <mxCell id="GsuCEb-JJvYCm_2uKdxv-23" value="" style="curved=1;endArrow=classic;html=1;rounded=0;exitX=0.5;exitY=0;exitDx=0;exitDy=0;entryX=1;entryY=1;entryDx=0;entryDy=0;" edge="1" parent="1" source="GsuCEb-JJvYCm_2uKdxv-1">
          <mxGeometry width="50" height="50" relative="1" as="geometry">
            <mxPoint x="187" y="266.5" as="sourcePoint" />
            <mxPoint x="240" y="266.5" as="targetPoint" />
            <Array as="points">
              <mxPoint x="220" y="200" />
              <mxPoint x="190" y="240" />
            </Array>
          </mxGeometry>
        </mxCell>
        <mxCell id="GsuCEb-JJvYCm_2uKdxv-25" value="&lt;font style=&quot;font-size: 16px;&quot;&gt;0&lt;/font&gt;" style="edgeLabel;html=1;align=center;verticalAlign=middle;resizable=0;points=[];" vertex="1" connectable="0" parent="GsuCEb-JJvYCm_2uKdxv-23">
          <mxGeometry x="0.1758" y="2" relative="1" as="geometry">
            <mxPoint as="offset" />
          </mxGeometry>
        </mxCell>
        <mxCell id="GsuCEb-JJvYCm_2uKdxv-26" value="" style="endArrow=classic;html=1;rounded=0;exitX=0;exitY=0.5;exitDx=0;exitDy=0;entryX=1;entryY=0.5;entryDx=0;entryDy=0;" edge="1" parent="1" source="GsuCEb-JJvYCm_2uKdxv-3" target="GsuCEb-JJvYCm_2uKdxv-1">
          <mxGeometry relative="1" as="geometry">
            <mxPoint x="360" y="290" as="sourcePoint" />
            <mxPoint x="460" y="290" as="targetPoint" />
          </mxGeometry>
        </mxCell>
        <mxCell id="GsuCEb-JJvYCm_2uKdxv-27" value="&lt;font style=&quot;font-size: 16px;&quot;&gt;0&lt;/font&gt;" style="edgeLabel;resizable=0;html=1;align=center;verticalAlign=middle;" connectable="0" vertex="1" parent="GsuCEb-JJvYCm_2uKdxv-26">
          <mxGeometry relative="1" as="geometry" />
        </mxCell>
        <mxCell id="GsuCEb-JJvYCm_2uKdxv-28" value="&lt;font style=&quot;font-size: 16px;&quot;&gt;Scan(101)&lt;/font&gt;&lt;font style=&quot;font-size: 16px;&quot;&gt;_Moore&lt;/font&gt;" style="text;html=1;align=center;verticalAlign=middle;resizable=0;points=[];autosize=1;strokeColor=none;fillColor=none;" vertex="1" parent="1">
          <mxGeometry x="165" y="100" width="150" height="30" as="geometry" />
        </mxCell>
        <mxCell id="GsuCEb-JJvYCm_2uKdxv-29" value="&lt;div style=&quot;font-size: 16px;&quot;&gt;&lt;font style=&quot;font-size: 16px;&quot;&gt;S3&lt;/font&gt;&lt;/div&gt;(OK)" style="ellipse;whiteSpace=wrap;html=1;fontSize=16;" vertex="1" parent="1">
          <mxGeometry x="610" y="110" width="75" height="50" as="geometry" />
        </mxCell>
        <mxCell id="GsuCEb-JJvYCm_2uKdxv-31" value="" style="endArrow=classic;html=1;rounded=0;entryX=0;entryY=1;entryDx=0;entryDy=0;" edge="1" parent="1" source="GsuCEb-JJvYCm_2uKdxv-3" target="GsuCEb-JJvYCm_2uKdxv-29">
          <mxGeometry relative="1" as="geometry">
            <mxPoint x="360" y="220" as="sourcePoint" />
            <mxPoint x="460" y="220" as="targetPoint" />
          </mxGeometry>
        </mxCell>
        <mxCell id="GsuCEb-JJvYCm_2uKdxv-32" value="&lt;font style=&quot;font-size: 16px;&quot;&gt;1&lt;/font&gt;" style="edgeLabel;resizable=0;html=1;align=center;verticalAlign=middle;fontSize=16;fontColor=#000000;" connectable="0" vertex="1" parent="GsuCEb-JJvYCm_2uKdxv-31">
          <mxGeometry relative="1" as="geometry" />
        </mxCell>
        <mxCell id="GsuCEb-JJvYCm_2uKdxv-36" value="" style="curved=1;endArrow=classic;html=1;rounded=0;exitX=1;exitY=0.5;exitDx=0;exitDy=0;entryX=1;entryY=1;entryDx=0;entryDy=0;" edge="1" parent="1" source="GsuCEb-JJvYCm_2uKdxv-29" target="GsuCEb-JJvYCm_2uKdxv-2">
          <mxGeometry width="50" height="50" relative="1" as="geometry">
            <mxPoint x="390" y="240" as="sourcePoint" />
            <mxPoint x="440" y="190" as="targetPoint" />
            <Array as="points">
              <mxPoint x="620" y="340" />
            </Array>
          </mxGeometry>
        </mxCell>
        <mxCell id="GsuCEb-JJvYCm_2uKdxv-37" value="&lt;font style=&quot;font-size: 16px;&quot;&gt;1&lt;/font&gt;" style="edgeLabel;html=1;align=center;verticalAlign=middle;resizable=0;points=[];fontColor=#000000;" vertex="1" connectable="0" parent="GsuCEb-JJvYCm_2uKdxv-36">
          <mxGeometry x="-0.2008" y="-27" relative="1" as="geometry">
            <mxPoint as="offset" />
          </mxGeometry>
        </mxCell>
        <mxCell id="GsuCEb-JJvYCm_2uKdxv-38" value="" style="endArrow=classic;html=1;rounded=0;entryX=0.5;entryY=0;entryDx=0;entryDy=0;exitX=0;exitY=0.5;exitDx=0;exitDy=0;" edge="1" parent="1" source="GsuCEb-JJvYCm_2uKdxv-29" target="GsuCEb-JJvYCm_2uKdxv-3">
          <mxGeometry relative="1" as="geometry">
            <mxPoint x="360" y="220" as="sourcePoint" />
            <mxPoint x="460" y="220" as="targetPoint" />
          </mxGeometry>
        </mxCell>
        <mxCell id="GsuCEb-JJvYCm_2uKdxv-39" value="&lt;font color=&quot;#ff0000&quot; style=&quot;font-size: 16px;&quot;&gt;0&lt;/font&gt;" style="edgeLabel;resizable=0;html=1;align=center;verticalAlign=middle;fontSize=16;" connectable="0" vertex="1" parent="GsuCEb-JJvYCm_2uKdxv-38">
          <mxGeometry relative="1" as="geometry" />
        </mxCell>
        <mxCell id="GsuCEb-JJvYCm_2uKdxv-40" value="" style="curved=1;endArrow=classic;html=1;rounded=0;exitX=0.5;exitY=0;exitDx=0;exitDy=0;entryX=0.5;entryY=0;entryDx=0;entryDy=0;" edge="1" parent="1" source="GsuCEb-JJvYCm_2uKdxv-29" target="GsuCEb-JJvYCm_2uKdxv-1">
          <mxGeometry width="50" height="50" relative="1" as="geometry">
            <mxPoint x="695" y="145" as="sourcePoint" />
            <mxPoint x="464" y="353" as="targetPoint" />
            <Array as="points">
              <mxPoint x="440" y="110" />
            </Array>
          </mxGeometry>
        </mxCell>
        <mxCell id="GsuCEb-JJvYCm_2uKdxv-43" value="&lt;font color=&quot;#3333ff&quot; style=&quot;font-size: 16px;&quot;&gt;0&lt;/font&gt;" style="edgeLabel;html=1;align=center;verticalAlign=middle;resizable=0;points=[];" vertex="1" connectable="0" parent="GsuCEb-JJvYCm_2uKdxv-40">
          <mxGeometry x="0.0534" y="32" relative="1" as="geometry">
            <mxPoint as="offset" />
          </mxGeometry>
        </mxCell>
      </root>
    </mxGraphModel>
  </diagram>
</mxfile>
